<svg xmlns="http://www.w3.org/2000/svg" viewBox="0 0 130 130"><defs><style>.cls-1{fill:#ed9a36;stroke-miterlimit:10;}.cls-1,.cls-2{stroke:#231f20;stroke-width:3px;}.cls-2{fill:none;stroke-linecap:round;stroke-linejoin:round;}</style></defs><g id="Layer_11" data-name="Layer 11"><rect class="cls-1" x="29.42" y="12.56" width="80.84" height="106.22" rx="5"/><path class="cls-2" d="M29.42,38.73c-5.35,0-9.68-2.89-9.68-6.46s4.33-6.45,9.68-6.45,9.69,2.89,9.69,6.45"/><path class="cls-2" d="M29.42,54.65c-5.35,0-9.68-2.89-9.68-6.45s4.33-6.46,9.68-6.46,9.69,2.89,9.69,6.46"/><path class="cls-2" d="M29.42,70.57c-5.35,0-9.68-2.89-9.68-6.45s4.33-6.45,9.68-6.45,9.69,2.89,9.69,6.45"/><path class="cls-2" d="M29.42,86.49c-5.35,0-9.68-2.89-9.68-6.45s4.33-6.45,9.68-6.45,9.69,2.89,9.69,6.45"/><path class="cls-2" d="M29.42,102.42c-5.35,0-9.68-2.89-9.68-6.46s4.33-6.45,9.68-6.45S39.11,92.4,39.11,96"/><line class="cls-2" x1="50.5" y1="32.27" x2="97.72" y2="32.27"/><line class="cls-2" x1="50.5" y1="43.72" x2="97.72" y2="43.72"/><line class="cls-2" x1="50.5" y1="55.16" x2="97.72" y2="55.16"/><line class="cls-2" x1="50.5" y1="66.6" x2="97.72" y2="66.6"/><line class="cls-2" x1="50.5" y1="78.04" x2="97.72" y2="78.04"/><line class="cls-2" x1="50.5" y1="89.48" x2="97.72" y2="89.48"/><line class="cls-2" x1="50.5" y1="100.92" x2="97.72" y2="100.92"/></g></svg>